<svg xmlns="http://www.w3.org/2000/svg" viewBox="0 0 64 64">
  <rect width="64" height="64" rx="14" fill="#0B4EA2"/>
  <path fill="#F4B400" d="M13 34l3.6-9a5 5 0 0 1 4.6-3.1h21.6a5 5 0 0 1 4.6 3.1L51 34c2.8.4 5 2.8 5 5.7V45a2.5 2.5 0 0 1-2.5 2.5h-3.1a6 6 0 0 1-11.8 0H25.4a6 6 0 0 1-11.8 0h-3.1A2.5 2.5 0 0 1 8 45v-5.3c0-2.9 2.2-5.3 5-5.7z"/>
  <path fill="#0B4EA2" d="M20.3 26.6A2 2 0 0 1 22.2 25h7.3v8h-12l2.8-6.4zM34.5 25h7.3a2 2 0 0 1 1.9 1.6L46.5 33h-12v-8z"/>
  <circle cx="19.5" cy="46" r="4.5" fill="#083061"/>
  <circle cx="44.5" cy="46" r="4.5" fill="#083061"/>
  <circle cx="19.5" cy="46" r="1.8" fill="#F4B400"/>
  <circle cx="44.5" cy="46" r="1.8" fill="#F4B400"/>
</svg>
