<svg xmlns="http://www.w3.org/2000/svg" viewBox="0 0 800 500" role="img" aria-label="Sedan silhouette">
  <defs>
    <linearGradient id="bg" x1="0" y1="0" x2="1" y2="1">
      <stop offset="0" stop-color="#06294f"/>
      <stop offset="1" stop-color="#0b4ea2"/>
    </linearGradient>
    <linearGradient id="body" x1="0" y1="0" x2="0" y2="1">
      <stop offset="0" stop-color="#f4f8fd"/>
      <stop offset="1" stop-color="#c9d9ee"/>
    </linearGradient>
  </defs>
  <rect width="800" height="500" fill="url(#bg)"/>
  <ellipse cx="400" cy="390" rx="300" ry="18" fill="#041d3a" opacity="0.55"/>
  <g>
    <path d="M120 355 C125 330 150 315 205 308 L245 302 C280 262 330 240 400 240 C465 240 515 258 550 300 L620 310 C665 316 685 332 688 355 C688 366 680 372 668 372 L620 372 A46 46 0 0 0 528 372 L272 372 A46 46 0 0 0 180 372 L138 372 C126 372 119 366 120 355 Z" fill="url(#body)"/>
    <path d="M295 300 C320 268 355 254 398 254 L398 300 Z" fill="#0b4ea2" opacity="0.85"/>
    <path d="M412 254 C460 256 500 272 528 300 L412 300 Z" fill="#0b4ea2" opacity="0.85"/>
    <circle cx="226" cy="372" r="40" fill="#0f2137"/>
    <circle cx="226" cy="372" r="20" fill="#c9d9ee"/>
    <circle cx="574" cy="372" r="40" fill="#0f2137"/>
    <circle cx="574" cy="372" r="20" fill="#c9d9ee"/>
    <rect x="120" y="338" width="24" height="6" rx="3" fill="#f4b400"/>
  </g>
  <rect x="60" y="452" width="120" height="3" rx="1.5" fill="#f4b400"/>
  <rect x="60" y="460" width="72" height="3" rx="1.5" fill="#f4b400" opacity="0.7"/>
</svg>
